<?xml version="1.0" standalone="no"?>
<!DOCTYPE svg PUBLIC "-//W3C//DTD SVG 20010904//EN"
 "http://www.w3.org/TR/2001/REC-SVG-20010904/DTD/svg10.dtd">
<svg version="1.0" xmlns="http://www.w3.org/2000/svg"
 width="512.000000pt" height="512.000000pt" viewBox="0 0 512.000000 512.000000"
 preserveAspectRatio="xMidYMid meet">

<g transform="translate(0.000000,512.000000) scale(0.100000,-0.100000)"
fill="#000000" stroke="none">
<path d="M2290 4675 c-793 -99 -1473 -661 -1730 -1432 -77 -230 -110 -442
-110 -696 1 -579 218 -1105 624 -1513 402 -403 906 -614 1468 -614 564 0 1084
221 1479 628 336 345 539 768 599 1247 17 134 15 410 -5 550 -64 469 -272 891
-603 1224 -131 131 -239 218 -387 312 -385 242 -877 351 -1335 294z m-672
-1234 c25 -13 152 -144 363 -376 178 -197 335 -373 349 -392 31 -45 40 -158
16 -214 -21 -51 -676 -769 -723 -794 -70 -36 -167 -20 -220 37 -56 59 -72 182
-34 256 11 21 133 164 271 316 l252 277 -75 82 c-41 45 -156 172 -257 282
-108 119 -190 218 -202 244 -30 65 -22 156 18 213 55 80 162 110 242 69z
m1972 -1586 l0 -175 -475 0 -475 0 0 175 0 175 475 0 475 0 0 -175z"/>
</g>
</svg>
